<svg xmlns="http://www.w3.org/2000/svg" xmlns:xlink="http://www.w3.org/1999/xlink" width="500" zoomAndPan="magnify" viewBox="0 0 375 374.999991" height="500" preserveAspectRatio="xMidYMid meet" version="1.0"><defs><clipPath id="7f68f0e22c"><path d="M 40.925781 40.007812 L 334.925781 40.007812 L 334.925781 334.757812 L 40.925781 334.757812 Z M 40.925781 40.007812 " clip-rule="nonzero"/></clipPath><clipPath id="5a8726fbbb"><path d="M 326.171875 178.347656 L 343.230469 178.347656 L 343.230469 196.667969 L 326.171875 196.667969 Z M 326.171875 178.347656 " clip-rule="nonzero"/></clipPath><clipPath id="0e81d41c0b"><path d="M 334.699219 178.347656 C 329.988281 178.347656 326.171875 182.445312 326.171875 187.5 C 326.171875 192.554688 329.988281 196.652344 334.699219 196.652344 C 339.410156 196.652344 343.230469 192.554688 343.230469 187.5 C 343.230469 182.445312 339.410156 178.347656 334.699219 178.347656 Z M 334.699219 178.347656 " clip-rule="nonzero"/></clipPath><clipPath id="dd6bec922d"><path d="M 31.769531 178.347656 L 50.078125 178.347656 L 50.078125 196.652344 L 31.769531 196.652344 Z M 31.769531 178.347656 " clip-rule="nonzero"/></clipPath><clipPath id="4fd97746f6"><path d="M 40.925781 178.347656 C 35.871094 178.347656 31.769531 182.445312 31.769531 187.5 C 31.769531 192.554688 35.871094 196.652344 40.925781 196.652344 C 45.980469 196.652344 50.078125 192.554688 50.078125 187.5 C 50.078125 182.445312 45.980469 178.347656 40.925781 178.347656 Z M 40.925781 178.347656 " clip-rule="nonzero"/></clipPath></defs><g clip-path="url(#7f68f0e22c)"><path fill="#000000" d="M 187.785156 334.953125 C 185.511719 334.953125 183.242188 334.902344 180.976562 334.796875 C 178.707031 334.691406 176.441406 334.535156 174.183594 334.324219 C 171.921875 334.113281 169.667969 333.851562 167.417969 333.539062 C 165.167969 333.226562 162.929688 332.859375 160.695312 332.445312 C 158.464844 332.027344 156.242188 331.558594 154.03125 331.039062 C 151.824219 330.519531 149.625 329.949219 147.441406 329.328125 C 145.257812 328.707031 143.089844 328.035156 140.9375 327.3125 C 138.78125 326.59375 136.648438 325.820312 134.53125 325 C 132.414062 324.183594 130.316406 323.3125 128.238281 322.398438 C 126.160156 321.480469 124.105469 320.515625 122.074219 319.503906 C 120.039062 318.492188 118.03125 317.433594 116.046875 316.328125 C 114.066406 315.226562 112.105469 314.074219 110.175781 312.878906 C 108.246094 311.6875 106.34375 310.445312 104.46875 309.164062 C 102.597656 307.882812 100.753906 306.554688 98.941406 305.1875 C 97.128906 303.820312 95.347656 302.410156 93.601562 300.960938 C 91.855469 299.511719 90.140625 298.023438 88.464844 296.492188 C 86.785156 294.964844 85.144531 293.394531 83.535156 291.792969 C 81.929688 290.1875 80.363281 288.542969 78.832031 286.867188 C 77.300781 285.191406 75.8125 283.476562 74.359375 281.730469 C 72.910156 279.984375 71.5 278.207031 70.128906 276.394531 C 68.761719 274.582031 67.433594 272.742188 66.148438 270.867188 C 64.867188 268.996094 63.625 267.09375 62.429688 265.164062 C 61.234375 263.234375 60.082031 261.277344 58.976562 259.292969 C 57.871094 257.3125 56.8125 255.304688 55.800781 253.273438 C 54.785156 251.238281 53.820312 249.183594 52.902344 247.109375 C 51.984375 245.03125 51.113281 242.933594 50.292969 240.820312 C 49.472656 238.703125 48.699219 236.566406 47.976562 234.414062 C 47.253906 232.261719 46.582031 230.09375 45.960938 227.910156 C 45.335938 225.726562 44.765625 223.53125 44.242188 221.320312 C 43.722656 219.109375 43.253906 216.890625 42.835938 214.65625 C 42.417969 212.425781 42.050781 210.1875 41.734375 207.9375 C 41.417969 205.6875 41.15625 203.433594 40.945312 201.171875 C 40.925781 200.945312 40.992188 200.75 41.136719 200.578125 C 41.289062 200.402344 41.476562 200.3125 41.707031 200.300781 C 42.523438 200.261719 43.332031 200.148438 44.125 199.960938 C 44.921875 199.769531 45.691406 199.503906 46.4375 199.167969 C 47.183594 198.828125 47.890625 198.421875 48.558594 197.949219 C 49.226562 197.476562 49.839844 196.945312 50.40625 196.351562 C 50.972656 195.761719 51.476562 195.121094 51.917969 194.433594 C 52.363281 193.746094 52.734375 193.019531 53.039062 192.261719 C 53.34375 191.5 53.574219 190.71875 53.730469 189.914062 C 53.882812 189.113281 53.960938 188.300781 53.960938 187.484375 C 53.960938 186.664062 53.882812 185.855469 53.730469 185.050781 C 53.574219 184.246094 53.34375 183.464844 53.039062 182.707031 C 52.738281 181.945312 52.363281 181.222656 51.921875 180.535156 C 51.476562 179.84375 50.972656 179.207031 50.410156 178.613281 C 49.84375 178.023438 49.226562 177.488281 48.558594 177.015625 C 47.890625 176.542969 47.1875 176.136719 46.441406 175.796875 C 45.695312 175.460938 44.925781 175.195312 44.128906 175.003906 C 43.335938 174.8125 42.527344 174.699219 41.710938 174.664062 C 41.480469 174.652344 41.292969 174.558594 41.144531 174.390625 C 40.992188 174.21875 40.925781 174.015625 40.945312 173.789062 C 41.15625 171.527344 41.417969 169.273438 41.734375 167.023438 C 42.046875 164.777344 42.414062 162.535156 42.832031 160.304688 C 43.25 158.070312 43.722656 155.851562 44.242188 153.640625 C 44.761719 151.429688 45.335938 149.234375 45.957031 147.050781 C 46.578125 144.867188 47.25 142.699219 47.972656 140.546875 C 48.695312 138.394531 49.46875 136.257812 50.289062 134.140625 C 51.109375 132.023438 51.980469 129.925781 52.898438 127.851562 C 53.816406 125.773438 54.78125 123.71875 55.792969 121.6875 C 56.808594 119.65625 57.867188 117.648438 58.972656 115.664062 C 60.078125 113.679688 61.230469 111.722656 62.425781 109.792969 C 63.621094 107.863281 64.859375 105.960938 66.144531 104.089844 C 67.429688 102.214844 68.753906 100.375 70.125 98.5625 C 71.492188 96.75 72.902344 94.972656 74.355469 93.226562 C 75.804688 91.480469 77.296875 89.765625 78.824219 88.089844 C 80.355469 86.410156 81.925781 84.769531 83.53125 83.164062 C 85.136719 81.558594 86.777344 79.992188 88.457031 78.464844 C 90.136719 76.933594 91.847656 75.445312 93.597656 73.992188 C 95.34375 72.542969 97.121094 71.132812 98.933594 69.765625 C 100.746094 68.398438 102.589844 67.074219 104.464844 65.789062 C 106.335938 64.507812 108.238281 63.269531 110.171875 62.074219 C 112.101562 60.878906 114.058594 59.730469 116.042969 58.625 C 118.027344 57.519531 120.035156 56.460938 122.066406 55.449219 C 124.101562 54.4375 126.15625 53.472656 128.234375 52.558594 C 130.308594 51.640625 132.40625 50.769531 134.523438 49.953125 C 136.640625 49.132812 138.777344 48.359375 140.929688 47.640625 C 143.082031 46.917969 145.253906 46.246094 147.4375 45.625 C 149.621094 45.003906 151.816406 44.433594 154.027344 43.914062 C 156.238281 43.394531 158.460938 42.925781 160.691406 42.507812 C 162.921875 42.09375 165.164062 41.726562 167.414062 41.414062 C 169.660156 41.097656 171.917969 40.839844 174.175781 40.628906 C 176.4375 40.417969 178.703125 40.261719 180.972656 40.15625 C 183.238281 40.050781 185.507812 40 187.78125 40 C 190.050781 40 192.320312 40.050781 194.589844 40.15625 C 196.855469 40.261719 199.121094 40.417969 201.382812 40.628906 C 203.644531 40.839844 205.898438 41.097656 208.148438 41.414062 C 210.394531 41.726562 212.636719 42.09375 214.867188 42.507812 C 217.101562 42.925781 219.320312 43.394531 221.53125 43.914062 C 223.742188 44.433594 225.9375 45.003906 228.125 45.625 C 230.308594 46.246094 232.476562 46.917969 234.628906 47.640625 C 236.78125 48.359375 238.917969 49.132812 241.035156 49.953125 C 243.152344 50.769531 245.25 51.640625 247.328125 52.558594 C 249.402344 53.472656 251.460938 54.4375 253.492188 55.449219 C 255.523438 56.460938 257.53125 57.519531 259.515625 58.625 C 261.5 59.730469 263.457031 60.878906 265.390625 62.074219 C 267.320312 63.269531 269.222656 64.507812 271.09375 65.789062 C 272.96875 67.074219 274.8125 68.398438 276.625 69.765625 C 278.4375 71.132812 280.214844 72.542969 281.964844 73.992188 C 283.710938 75.445312 285.421875 76.933594 287.101562 78.464844 C 288.78125 79.992188 290.421875 81.558594 292.027344 83.164062 C 293.636719 84.769531 295.203125 86.410156 296.734375 88.089844 C 298.261719 89.765625 299.753906 91.480469 301.207031 93.226562 C 302.65625 94.972656 304.066406 96.75 305.433594 98.5625 C 306.804688 100.375 308.128906 102.214844 309.414062 104.089844 C 310.699219 105.960938 311.9375 107.863281 313.132812 109.792969 C 314.332031 111.722656 315.480469 113.679688 316.585938 115.664062 C 317.691406 117.648438 318.75 119.65625 319.765625 121.6875 C 320.777344 123.71875 321.742188 125.773438 322.660156 127.851562 C 323.578125 129.925781 324.449219 132.023438 325.269531 134.140625 C 326.089844 136.257812 326.863281 138.394531 327.585938 140.546875 C 328.308594 142.699219 328.980469 144.867188 329.601562 147.050781 C 330.226562 149.234375 330.796875 151.429688 331.316406 153.640625 C 331.839844 155.851562 332.308594 158.070312 332.726562 160.304688 C 333.144531 162.535156 333.511719 164.777344 333.824219 167.023438 C 334.140625 169.273438 334.402344 171.527344 334.613281 173.789062 C 334.632812 174.015625 334.570312 174.214844 334.421875 174.390625 C 334.269531 174.558594 334.082031 174.652344 333.851562 174.664062 C 333.035156 174.699219 332.230469 174.816406 331.4375 175.007812 C 330.640625 175.199219 329.875 175.464844 329.128906 175.804688 C 328.386719 176.144531 327.679688 176.550781 327.015625 177.023438 C 326.347656 177.5 325.734375 178.03125 325.171875 178.621094 C 324.605469 179.214844 324.101562 179.851562 323.660156 180.539062 C 323.21875 181.226562 322.84375 181.949219 322.542969 182.710938 C 322.238281 183.46875 322.007812 184.25 321.855469 185.050781 C 321.699219 185.855469 321.621094 186.664062 321.621094 187.480469 C 321.621094 188.296875 321.699219 189.109375 321.855469 189.910156 C 322.007812 190.714844 322.238281 191.492188 322.542969 192.253906 C 322.84375 193.011719 323.21875 193.734375 323.660156 194.421875 C 324.101562 195.109375 324.605469 195.75 325.171875 196.339844 C 325.734375 196.929688 326.347656 197.464844 327.015625 197.9375 C 327.679688 198.410156 328.386719 198.816406 329.128906 199.15625 C 329.875 199.496094 330.640625 199.761719 331.4375 199.953125 C 332.230469 200.144531 333.035156 200.261719 333.851562 200.300781 C 334.082031 200.3125 334.269531 200.402344 334.417969 200.574219 C 334.570312 200.746094 334.632812 200.945312 334.613281 201.171875 C 334.402344 203.433594 334.140625 205.6875 333.824219 207.9375 C 333.511719 210.183594 333.144531 212.425781 332.726562 214.65625 C 332.304688 216.886719 331.835938 219.109375 331.316406 221.320312 C 330.792969 223.527344 330.222656 225.726562 329.601562 227.910156 C 328.976562 230.09375 328.304688 232.261719 327.582031 234.414062 C 326.859375 236.566406 326.085938 238.699219 325.265625 240.816406 C 324.445312 242.933594 323.574219 245.03125 322.65625 247.105469 C 321.738281 249.183594 320.773438 251.238281 319.761719 253.269531 C 318.75 255.300781 317.6875 257.308594 316.582031 259.292969 C 315.476562 261.277344 314.328125 263.234375 313.128906 265.164062 C 311.933594 267.09375 310.695312 268.992188 309.410156 270.867188 C 308.125 272.738281 306.800781 274.582031 305.429688 276.390625 C 304.0625 278.203125 302.652344 279.984375 301.203125 281.730469 C 299.75 283.476562 298.257812 285.1875 296.730469 286.863281 C 295.199219 288.542969 293.632812 290.183594 292.023438 291.789062 C 290.417969 293.394531 288.777344 294.960938 287.097656 296.488281 C 285.421875 298.019531 283.707031 299.507812 281.960938 300.957031 C 280.214844 302.410156 278.433594 303.816406 276.621094 305.183594 C 274.808594 306.554688 272.964844 307.878906 271.09375 309.160156 C 269.21875 310.445312 267.316406 311.683594 265.386719 312.878906 C 263.457031 314.074219 261.5 315.222656 259.515625 316.328125 C 257.53125 317.429688 255.523438 318.488281 253.492188 319.5 C 251.457031 320.511719 249.402344 321.476562 247.328125 322.394531 C 245.25 323.3125 243.152344 324.179688 241.035156 325 C 238.917969 325.820312 236.78125 326.589844 234.628906 327.3125 C 232.476562 328.03125 230.308594 328.703125 228.125 329.324219 C 225.941406 329.945312 223.742188 330.515625 221.535156 331.035156 C 219.324219 331.558594 217.101562 332.023438 214.871094 332.441406 C 212.636719 332.859375 210.398438 333.226562 208.148438 333.539062 C 205.902344 333.851562 203.644531 334.113281 201.386719 334.324219 C 199.125 334.535156 196.859375 334.691406 194.589844 334.796875 C 192.324219 334.902344 190.054688 334.953125 187.785156 334.953125 Z M 42.625 201.824219 C 42.84375 204.050781 43.117188 206.273438 43.4375 208.484375 C 43.761719 210.699219 44.132812 212.90625 44.558594 215.101562 C 44.980469 217.296875 45.457031 219.484375 45.980469 221.660156 C 46.503906 223.835938 47.078125 225.996094 47.703125 228.144531 C 48.328125 230.292969 49 232.425781 49.722656 234.542969 C 50.445312 236.660156 51.214844 238.761719 52.03125 240.84375 C 52.851562 242.925781 53.71875 244.988281 54.632812 247.03125 C 55.542969 249.074219 56.503906 251.09375 57.511719 253.089844 C 58.519531 255.089844 59.570312 257.0625 60.667969 259.011719 C 61.765625 260.960938 62.90625 262.886719 64.09375 264.785156 C 65.277344 266.679688 66.507812 268.550781 67.777344 270.390625 C 69.050781 272.230469 70.363281 274.042969 71.71875 275.820312 C 73.074219 277.601562 74.46875 279.351562 75.90625 281.066406 C 77.339844 282.78125 78.816406 284.464844 80.328125 286.113281 C 81.84375 287.761719 83.390625 289.371094 84.980469 290.949219 C 86.566406 292.527344 88.1875 294.066406 89.847656 295.566406 C 91.503906 297.070312 93.199219 298.535156 94.921875 299.957031 C 96.648438 301.382812 98.40625 302.765625 100.195312 304.109375 C 101.984375 305.453125 103.800781 306.753906 105.652344 308.015625 C 107.5 309.273438 109.378906 310.492188 111.28125 311.664062 C 113.1875 312.835938 115.117188 313.964844 117.074219 315.050781 C 119.03125 316.136719 121.011719 317.175781 123.019531 318.167969 C 125.023438 319.160156 127.050781 320.109375 129.097656 321.007812 C 131.144531 321.90625 133.214844 322.761719 135.300781 323.566406 C 137.386719 324.371094 139.492188 325.128906 141.617188 325.835938 C 143.738281 326.542969 145.875 327.203125 148.027344 327.8125 C 150.179688 328.421875 152.347656 328.980469 154.523438 329.492188 C 156.703125 330.003906 158.890625 330.460938 161.089844 330.871094 C 163.292969 331.28125 165.5 331.640625 167.714844 331.945312 C 169.929688 332.253906 172.152344 332.511719 174.382812 332.71875 C 176.609375 332.921875 178.839844 333.078125 181.074219 333.179688 C 183.308594 333.28125 185.546875 333.335938 187.785156 333.335938 C 190.019531 333.335938 192.257812 333.28125 194.492188 333.179688 C 196.726562 333.078125 198.957031 332.921875 201.1875 332.71875 C 203.414062 332.511719 205.636719 332.253906 207.851562 331.945312 C 210.070312 331.640625 212.277344 331.28125 214.476562 330.871094 C 216.675781 330.460938 218.863281 330.003906 221.042969 329.492188 C 223.222656 328.980469 225.386719 328.421875 227.539062 327.8125 C 229.691406 327.203125 231.828125 326.542969 233.953125 325.835938 C 236.074219 325.128906 238.179688 324.371094 240.265625 323.566406 C 242.355469 322.761719 244.421875 321.90625 246.46875 321.007812 C 248.519531 320.109375 250.546875 319.160156 252.550781 318.167969 C 254.554688 317.175781 256.535156 316.136719 258.492188 315.050781 C 260.449219 313.964844 262.378906 312.835938 264.285156 311.664062 C 266.191406 310.492188 268.066406 309.273438 269.914062 308.015625 C 271.765625 306.753906 273.582031 305.453125 275.371094 304.109375 C 277.160156 302.765625 278.917969 301.382812 280.644531 299.957031 C 282.371094 298.535156 284.0625 297.070312 285.71875 295.566406 C 287.378906 294.066406 289 292.527344 290.589844 290.949219 C 292.175781 289.371094 293.726562 287.761719 295.238281 286.113281 C 296.75 284.464844 298.226562 282.78125 299.660156 281.066406 C 301.097656 279.351562 302.492188 277.601562 303.847656 275.820312 C 305.203125 274.042969 306.515625 272.230469 307.789062 270.390625 C 309.058594 268.550781 310.289062 266.679688 311.476562 264.785156 C 312.660156 262.886719 313.800781 260.960938 314.898438 259.011719 C 315.996094 257.0625 317.050781 255.089844 318.054688 253.089844 C 319.0625 251.09375 320.023438 249.074219 320.9375 247.03125 C 321.851562 244.988281 322.714844 242.925781 323.535156 240.84375 C 324.351562 238.761719 325.125 236.660156 325.847656 234.542969 C 326.566406 232.425781 327.242188 230.292969 327.863281 228.144531 C 328.488281 225.996094 329.0625 223.835938 329.585938 221.660156 C 330.113281 219.484375 330.585938 217.296875 331.011719 215.101562 C 331.433594 212.90625 331.808594 210.699219 332.128906 208.484375 C 332.453125 206.273438 332.722656 204.050781 332.945312 201.824219 C 332.0625 201.734375 331.199219 201.5625 330.351562 201.308594 C 329.503906 201.058594 328.683594 200.734375 327.894531 200.332031 C 327.105469 199.929688 326.363281 199.460938 325.660156 198.921875 C 324.957031 198.382812 324.3125 197.785156 323.71875 197.128906 C 323.125 196.472656 322.597656 195.765625 322.136719 195.011719 C 321.675781 194.257812 321.285156 193.464844 320.96875 192.640625 C 320.652344 191.816406 320.410156 190.964844 320.25 190.097656 C 320.089844 189.226562 320.007812 188.347656 320.007812 187.464844 C 320.007812 186.582031 320.089844 185.703125 320.25 184.832031 C 320.410156 183.964844 320.652344 183.113281 320.96875 182.289062 C 321.285156 181.464844 321.675781 180.671875 322.136719 179.917969 C 322.597656 179.164062 323.125 178.457031 323.71875 177.800781 C 324.3125 177.144531 324.957031 176.546875 325.660156 176.007812 C 326.363281 175.46875 327.105469 175 327.894531 174.597656 C 328.683594 174.195312 329.503906 173.871094 330.351562 173.621094 C 331.199219 173.367188 332.0625 173.195312 332.945312 173.105469 C 332.722656 170.878906 332.453125 168.65625 332.128906 166.445312 C 331.808594 164.230469 331.433594 162.023438 331.011719 159.828125 C 330.585938 157.632812 330.113281 155.445312 329.585938 153.269531 C 329.0625 151.09375 328.488281 148.933594 327.863281 146.785156 C 327.242188 144.636719 326.566406 142.503906 325.847656 140.386719 C 325.125 138.269531 324.351562 136.167969 323.535156 134.085938 C 322.714844 132.003906 321.851562 129.941406 320.9375 127.898438 C 320.023438 125.855469 319.0625 123.835938 318.054688 121.839844 C 317.050781 119.839844 315.996094 117.867188 314.898438 115.917969 C 313.800781 113.964844 312.660156 112.042969 311.476562 110.144531 C 310.289062 108.25 309.058594 106.378906 307.789062 104.539062 C 306.515625 102.699219 305.203125 100.886719 303.847656 99.109375 C 302.492188 97.328125 301.097656 95.578125 299.660156 93.863281 C 298.226562 92.148438 296.75 90.464844 295.238281 88.816406 C 293.726562 87.167969 292.175781 85.558594 290.589844 83.980469 C 289 82.402344 287.378906 80.863281 285.71875 79.363281 C 284.0625 77.859375 282.371094 76.394531 280.644531 74.972656 C 278.917969 73.546875 277.160156 72.164062 275.371094 70.820312 C 273.582031 69.476562 271.765625 68.175781 269.914062 66.914062 C 268.066406 65.65625 266.191406 64.4375 264.285156 63.265625 C 262.378906 62.09375 260.449219 60.964844 258.492188 59.878906 C 256.535156 58.792969 254.554688 57.753906 252.550781 56.761719 C 250.546875 55.769531 248.519531 54.820312 246.46875 53.921875 C 244.421875 53.023438 242.355469 52.167969 240.265625 51.363281 C 238.179688 50.558594 236.074219 49.800781 233.953125 49.09375 C 231.828125 48.386719 229.691406 47.726562 227.539062 47.117188 C 225.386719 46.507812 223.222656 45.949219 221.042969 45.4375 C 218.863281 44.925781 216.675781 44.46875 214.476562 44.058594 C 212.277344 43.648438 210.070312 43.289062 207.851562 42.984375 C 205.636719 42.675781 203.414062 42.417969 201.1875 42.210938 C 198.957031 42.007812 196.726562 41.851562 194.492188 41.75 C 192.257812 41.648438 190.019531 41.59375 187.785156 41.59375 C 185.546875 41.59375 183.308594 41.648438 181.074219 41.75 C 178.839844 41.851562 176.609375 42.007812 174.382812 42.210938 C 172.152344 42.417969 169.929688 42.675781 167.714844 42.984375 C 165.5 43.289062 163.292969 43.648438 161.089844 44.058594 C 158.890625 44.46875 156.703125 44.925781 154.523438 45.4375 C 152.347656 45.949219 150.179688 46.507812 148.027344 47.117188 C 145.875 47.726562 143.738281 48.386719 141.617188 49.09375 C 139.492188 49.800781 137.386719 50.558594 135.300781 51.363281 C 133.214844 52.167969 131.144531 53.023438 129.097656 53.921875 C 127.050781 54.820312 125.023438 55.769531 123.019531 56.761719 C 121.011719 57.753906 119.03125 58.792969 117.074219 59.878906 C 115.117188 60.964844 113.1875 62.09375 111.28125 63.265625 C 109.378906 64.4375 107.5 65.65625 105.652344 66.914062 C 103.800781 68.175781 101.984375 69.476562 100.195312 70.820312 C 98.40625 72.164062 96.648438 73.546875 94.921875 74.972656 C 93.195312 76.394531 91.503906 77.859375 89.847656 79.363281 C 88.1875 80.863281 86.566406 82.402344 84.980469 83.980469 C 83.390625 85.558594 81.84375 87.167969 80.328125 88.816406 C 78.816406 90.464844 77.339844 92.148438 75.90625 93.863281 C 74.46875 95.578125 73.074219 97.328125 71.71875 99.109375 C 70.363281 100.886719 69.050781 102.699219 67.777344 104.539062 C 66.507812 106.378906 65.277344 108.25 64.09375 110.144531 C 62.90625 112.042969 61.765625 113.964844 60.667969 115.917969 C 59.570312 117.867188 58.519531 119.839844 57.511719 121.839844 C 56.503906 123.835938 55.542969 125.855469 54.632812 127.898438 C 53.71875 129.941406 52.851562 132.003906 52.03125 134.085938 C 51.214844 136.167969 50.445312 138.269531 49.722656 140.386719 C 49 142.503906 48.328125 144.636719 47.703125 146.785156 C 47.078125 148.933594 46.503906 151.09375 45.980469 153.269531 C 45.457031 155.445312 44.980469 157.632812 44.558594 159.828125 C 44.132812 162.023438 43.761719 164.230469 43.4375 166.445312 C 43.117188 168.65625 42.84375 170.878906 42.625 173.105469 C 43.503906 173.195312 44.367188 173.367188 45.214844 173.621094 C 46.066406 173.871094 46.882812 174.195312 47.671875 174.597656 C 48.460938 175 49.207031 175.46875 49.90625 176.007812 C 50.609375 176.546875 51.257812 177.144531 51.847656 177.800781 C 52.441406 178.457031 52.96875 179.164062 53.429688 179.917969 C 53.894531 180.671875 54.28125 181.464844 54.601562 182.289062 C 54.917969 183.113281 55.15625 183.964844 55.316406 184.832031 C 55.480469 185.703125 55.558594 186.582031 55.558594 187.464844 C 55.558594 188.347656 55.480469 189.226562 55.316406 190.097656 C 55.15625 190.964844 54.917969 191.816406 54.601562 192.640625 C 54.28125 193.464844 53.894531 194.257812 53.429688 195.011719 C 52.96875 195.765625 52.441406 196.472656 51.847656 197.128906 C 51.257812 197.785156 50.609375 198.382812 49.90625 198.921875 C 49.207031 199.460938 48.460938 199.929688 47.671875 200.332031 C 46.882812 200.734375 46.066406 201.058594 45.214844 201.308594 C 44.367188 201.5625 43.503906 201.734375 42.625 201.824219 Z M 42.625 201.824219 " fill-opacity="1" fill-rule="nonzero"/></g><path fill="#000000" d="M 325.617188 168.128906 C 325.417969 168.132812 325.238281 168.066406 325.085938 167.9375 C 324.933594 167.804688 324.839844 167.640625 324.8125 167.441406 C 324.515625 165.40625 324.171875 163.378906 323.78125 161.359375 C 323.394531 159.339844 322.960938 157.328125 322.484375 155.328125 C 322.003906 153.328125 321.484375 151.339844 320.917969 149.363281 C 320.351562 147.382812 319.742188 145.421875 319.085938 143.46875 C 318.433594 141.519531 317.734375 139.585938 316.996094 137.667969 C 316.253906 135.746094 315.472656 133.847656 314.648438 131.960938 C 313.824219 130.078125 312.957031 128.210938 312.046875 126.367188 C 311.140625 124.523438 310.191406 122.695312 309.203125 120.894531 C 308.214844 119.089844 307.183594 117.308594 306.117188 115.550781 C 305.046875 113.796875 303.941406 112.0625 302.792969 110.355469 C 301.648438 108.644531 300.464844 106.964844 299.246094 105.308594 C 298.023438 103.652344 296.765625 102.027344 295.472656 100.425781 C 294.179688 98.828125 292.851562 97.257812 291.488281 95.71875 C 290.125 94.175781 288.730469 92.667969 287.300781 91.191406 C 285.871094 89.710938 284.40625 88.265625 282.914062 86.851562 C 281.417969 85.441406 279.890625 84.0625 278.335938 82.714844 C 276.78125 81.371094 275.195312 80.0625 273.578125 78.789062 C 271.964844 77.511719 270.324219 76.277344 268.652344 75.074219 C 266.984375 73.875 265.289062 72.710938 263.566406 71.585938 C 261.84375 70.457031 260.097656 69.371094 258.328125 68.324219 C 256.558594 67.277344 254.765625 66.269531 252.953125 65.300781 C 251.136719 64.332031 249.300781 63.40625 247.445312 62.519531 C 245.589844 61.632812 243.714844 60.789062 241.820312 59.984375 C 239.925781 59.183594 238.015625 58.421875 236.089844 57.707031 C 234.160156 56.988281 232.21875 56.3125 230.261719 55.683594 C 228.304688 55.050781 226.332031 54.464844 224.347656 53.921875 C 222.367188 53.378906 220.371094 52.878906 218.363281 52.425781 C 216.359375 51.972656 214.34375 51.5625 212.320312 51.195312 C 210.292969 50.832031 208.261719 50.511719 206.226562 50.238281 C 204.1875 49.964844 202.144531 49.738281 200.09375 49.554688 C 198.046875 49.371094 195.992188 49.234375 193.9375 49.140625 C 191.882812 49.050781 189.828125 49.003906 187.773438 49.003906 C 185.714844 49.003906 183.660156 49.050781 181.605469 49.140625 C 179.550781 49.234375 177.496094 49.371094 175.449219 49.554688 C 173.402344 49.738281 171.355469 49.964844 169.320312 50.238281 C 167.28125 50.511719 165.25 50.832031 163.222656 51.195312 C 161.199219 51.5625 159.183594 51.972656 157.179688 52.425781 C 155.171875 52.878906 153.179688 53.378906 151.195312 53.921875 C 149.210938 54.464844 147.238281 55.050781 145.28125 55.683594 C 143.324219 56.3125 141.382812 56.988281 139.453125 57.707031 C 137.527344 58.421875 135.617188 59.183594 133.722656 59.984375 C 131.828125 60.789062 129.953125 61.632812 128.097656 62.519531 C 126.242188 63.40625 124.40625 64.332031 122.589844 65.300781 C 120.777344 66.269531 118.984375 67.277344 117.214844 68.324219 C 115.445312 69.371094 113.699219 70.457031 111.976562 71.585938 C 110.253906 72.710938 108.558594 73.875 106.890625 75.074219 C 105.21875 76.277344 103.578125 77.511719 101.964844 78.789062 C 100.347656 80.0625 98.765625 81.371094 97.207031 82.714844 C 95.652344 84.0625 94.125 85.441406 92.632812 86.851562 C 91.136719 88.265625 89.675781 89.710938 88.242188 91.191406 C 86.8125 92.667969 85.417969 94.175781 84.054688 95.71875 C 82.691406 97.257812 81.363281 98.828125 80.070312 100.425781 C 78.777344 102.027344 77.519531 103.652344 76.296875 105.308594 C 75.078125 106.964844 73.894531 108.644531 72.75 110.355469 C 71.601562 112.0625 70.496094 113.796875 69.425781 115.550781 C 68.359375 117.308594 67.328125 119.089844 66.339844 120.894531 C 65.351562 122.695312 64.402344 124.523438 63.496094 126.367188 C 62.585938 128.210938 61.71875 130.078125 60.894531 131.960938 C 60.070312 133.847656 59.289062 135.746094 58.546875 137.667969 C 57.808594 139.585938 57.109375 141.519531 56.457031 143.46875 C 55.804688 145.421875 55.191406 147.382812 54.625 149.363281 C 54.058594 151.339844 53.539062 153.328125 53.058594 155.328125 C 52.582031 157.328125 52.148438 159.339844 51.761719 161.359375 C 51.371094 163.378906 51.027344 165.40625 50.730469 167.441406 C 50.699219 167.660156 50.59375 167.835938 50.417969 167.96875 C 50.238281 168.101562 50.039062 168.152344 49.820312 168.121094 C 49.601562 168.085938 49.429688 167.980469 49.300781 167.800781 C 49.167969 167.625 49.121094 167.425781 49.152344 167.207031 C 49.453125 165.148438 49.800781 163.097656 50.195312 161.054688 C 50.585938 159.011719 51.023438 156.976562 51.507812 154.953125 C 51.992188 152.929688 52.519531 150.917969 53.09375 148.917969 C 53.664062 146.917969 54.28125 144.929688 54.945312 142.957031 C 55.605469 140.984375 56.3125 139.027344 57.058594 137.085938 C 57.808594 135.144531 58.601562 133.222656 59.433594 131.316406 C 60.269531 129.410156 61.144531 127.523438 62.0625 125.65625 C 62.980469 123.789062 63.941406 121.941406 64.941406 120.117188 C 65.941406 118.292969 66.984375 116.492188 68.066406 114.714844 C 69.144531 112.9375 70.265625 111.183594 71.425781 109.457031 C 72.582031 107.726562 73.78125 106.027344 75.015625 104.351562 C 76.25 102.675781 77.523438 101.03125 78.828125 99.414062 C 80.136719 97.796875 81.480469 96.207031 82.859375 94.648438 C 84.238281 93.089844 85.652344 91.5625 87.097656 90.070312 C 88.546875 88.574219 90.027344 87.109375 91.539062 85.679688 C 93.050781 84.253906 94.59375 82.855469 96.167969 81.496094 C 97.742188 80.136719 99.34375 78.8125 100.980469 77.523438 C 102.613281 76.234375 104.273438 74.980469 105.960938 73.765625 C 107.652344 72.550781 109.367188 71.375 111.109375 70.234375 C 112.847656 69.097656 114.617188 67.996094 116.40625 66.9375 C 118.195312 65.875 120.007812 64.855469 121.84375 63.878906 C 123.679688 62.898438 125.539062 61.960938 127.414062 61.0625 C 129.292969 60.167969 131.191406 59.3125 133.105469 58.5 C 135.023438 57.6875 136.953125 56.921875 138.90625 56.195312 C 140.855469 55.46875 142.820312 54.785156 144.800781 54.148438 C 146.78125 53.511719 148.773438 52.914062 150.78125 52.367188 C 152.789062 51.816406 154.804688 51.3125 156.835938 50.851562 C 158.863281 50.394531 160.902344 49.980469 162.949219 49.609375 C 165 49.242188 167.054688 48.917969 169.117188 48.640625 C 171.179688 48.363281 173.246094 48.132812 175.316406 47.949219 C 177.390625 47.761719 179.464844 47.625 181.542969 47.53125 C 183.625 47.4375 185.703125 47.390625 187.785156 47.390625 C 189.863281 47.390625 191.945312 47.4375 194.023438 47.53125 C 196.101562 47.625 198.175781 47.761719 200.25 47.949219 C 202.320312 48.132812 204.390625 48.363281 206.453125 48.640625 C 208.515625 48.917969 210.570312 49.242188 212.617188 49.609375 C 214.664062 49.980469 216.703125 50.394531 218.730469 50.851562 C 220.761719 51.3125 222.78125 51.816406 224.785156 52.367188 C 226.792969 52.914062 228.785156 53.511719 230.765625 54.148438 C 232.746094 54.785156 234.714844 55.46875 236.664062 56.195312 C 238.613281 56.921875 240.546875 57.6875 242.460938 58.5 C 244.378906 59.3125 246.273438 60.167969 248.152344 61.0625 C 250.03125 61.960938 251.886719 62.898438 253.722656 63.878906 C 255.558594 64.855469 257.371094 65.875 259.160156 66.9375 C 260.953125 67.996094 262.71875 69.097656 264.460938 70.234375 C 266.199219 71.375 267.917969 72.550781 269.605469 73.765625 C 271.292969 74.980469 272.957031 76.234375 274.589844 77.523438 C 276.222656 78.8125 277.824219 80.136719 279.398438 81.496094 C 280.972656 82.855469 282.515625 84.253906 284.03125 85.679688 C 285.542969 87.109375 287.019531 88.574219 288.46875 90.070312 C 289.914062 91.5625 291.328125 93.089844 292.707031 94.648438 C 294.085938 96.207031 295.429688 97.796875 296.738281 99.414062 C 298.046875 101.03125 299.316406 102.675781 300.550781 104.351562 C 301.785156 106.027344 302.984375 107.726562 304.144531 109.457031 C 305.300781 111.183594 306.421875 112.9375 307.503906 114.714844 C 308.582031 116.492188 309.625 118.292969 310.625 120.117188 C 311.625 121.941406 312.585938 123.789062 313.503906 125.65625 C 314.421875 127.523438 315.296875 129.410156 316.132812 131.316406 C 316.96875 133.222656 317.757812 135.144531 318.507812 137.085938 C 319.257812 139.027344 319.960938 140.984375 320.621094 142.957031 C 321.285156 144.929688 321.902344 146.917969 322.476562 148.917969 C 323.046875 150.917969 323.574219 152.929688 324.058594 154.953125 C 324.542969 156.976562 324.980469 159.011719 325.375 161.054688 C 325.765625 163.097656 326.113281 165.148438 326.414062 167.207031 C 326.445312 167.425781 326.394531 167.625 326.261719 167.804688 C 326.128906 167.980469 325.953125 168.085938 325.734375 168.117188 Z M 325.617188 168.128906 " fill-opacity="1" fill-rule="nonzero"/><path fill="#000000" d="M 187.785156 327.574219 C 185.703125 327.574219 183.625 327.527344 181.542969 327.433594 C 179.464844 327.34375 177.390625 327.203125 175.316406 327.019531 C 173.246094 326.832031 171.179688 326.601562 169.117188 326.324219 C 167.054688 326.046875 165 325.722656 162.949219 325.355469 C 160.902344 324.984375 158.863281 324.570312 156.835938 324.109375 C 154.804688 323.652344 152.789062 323.144531 150.78125 322.597656 C 148.773438 322.046875 146.78125 321.453125 144.800781 320.8125 C 142.820312 320.175781 140.855469 319.492188 138.90625 318.765625 C 136.953125 318.039062 135.023438 317.273438 133.105469 316.460938 C 131.191406 315.648438 129.292969 314.792969 127.417969 313.894531 C 125.539062 313 123.683594 312.0625 121.847656 311.082031 C 120.011719 310.101562 118.199219 309.082031 116.40625 308.023438 C 114.617188 306.960938 112.851562 305.863281 111.109375 304.722656 C 109.367188 303.585938 107.652344 302.410156 105.964844 301.191406 C 104.273438 299.976562 102.613281 298.726562 100.980469 297.4375 C 99.347656 296.148438 97.742188 294.824219 96.167969 293.460938 C 94.59375 292.101562 93.050781 290.707031 91.539062 289.277344 C 90.027344 287.847656 88.546875 286.386719 87.101562 284.890625 C 85.652344 283.394531 84.242188 281.867188 82.863281 280.308594 C 81.484375 278.75 80.140625 277.164062 78.832031 275.542969 C 77.523438 273.925781 76.253906 272.28125 75.015625 270.605469 C 73.78125 268.929688 72.585938 267.230469 71.425781 265.5 C 70.265625 263.773438 69.148438 262.019531 68.066406 260.242188 C 66.984375 258.464844 65.945312 256.664062 64.945312 254.839844 C 63.945312 253.015625 62.984375 251.167969 62.066406 249.300781 C 61.148438 247.433594 60.269531 245.546875 59.4375 243.640625 C 58.601562 241.734375 57.808594 239.8125 57.0625 237.871094 C 56.3125 235.929688 55.605469 233.972656 54.945312 232 C 54.285156 230.027344 53.667969 228.039062 53.09375 226.039062 C 52.519531 224.039062 51.992188 222.027344 51.507812 220.003906 C 51.027344 217.980469 50.585938 215.945312 50.195312 213.902344 C 49.800781 211.859375 49.453125 209.808594 49.152344 207.75 C 49.121094 207.53125 49.171875 207.332031 49.304688 207.15625 C 49.4375 206.976562 49.613281 206.871094 49.832031 206.839844 C 50.050781 206.808594 50.25 206.859375 50.429688 206.992188 C 50.605469 207.125 50.710938 207.300781 50.742188 207.519531 C 51.039062 209.554688 51.382812 211.582031 51.773438 213.601562 C 52.160156 215.625 52.59375 217.632812 53.070312 219.632812 C 53.550781 221.632812 54.070312 223.625 54.636719 225.601562 C 55.203125 227.578125 55.816406 229.542969 56.46875 231.492188 C 57.121094 233.441406 57.820312 235.375 58.558594 237.296875 C 59.300781 239.214844 60.082031 241.117188 60.90625 243 C 61.730469 244.882812 62.597656 246.75 63.507812 248.59375 C 64.414062 250.441406 65.363281 252.265625 66.351562 254.066406 C 67.339844 255.871094 68.371094 257.652344 69.4375 259.410156 C 70.507812 261.167969 71.613281 262.898438 72.761719 264.609375 C 73.90625 266.316406 75.089844 267.996094 76.308594 269.652344 C 77.53125 271.308594 78.789062 272.9375 80.082031 274.535156 C 81.375 276.136719 82.703125 277.703125 84.066406 279.246094 C 85.429688 280.785156 86.824219 282.292969 88.253906 283.773438 C 89.6875 285.25 91.148438 286.695312 92.644531 288.109375 C 94.136719 289.523438 95.664062 290.902344 97.21875 292.246094 C 98.777344 293.589844 100.359375 294.898438 101.976562 296.175781 C 103.589844 297.449219 105.230469 298.6875 106.902344 299.886719 C 108.570312 301.089844 110.265625 302.253906 111.988281 303.378906 C 113.710938 304.503906 115.457031 305.589844 117.226562 306.636719 C 118.996094 307.683594 120.789062 308.695312 122.601562 309.660156 C 124.417969 310.628906 126.253906 311.554688 128.109375 312.441406 C 129.964844 313.328125 131.839844 314.171875 133.734375 314.976562 C 135.628906 315.777344 137.539062 316.539062 139.464844 317.257812 C 141.394531 317.972656 143.335938 318.648438 145.292969 319.277344 C 147.25 319.910156 149.222656 320.496094 151.207031 321.039062 C 153.191406 321.582031 155.183594 322.082031 157.191406 322.535156 C 159.195312 322.992188 161.210938 323.398438 163.234375 323.765625 C 165.261719 324.128906 167.292969 324.449219 169.332031 324.722656 C 171.367188 324.996094 173.414062 325.226562 175.460938 325.410156 C 177.511719 325.589844 179.5625 325.730469 181.617188 325.820312 C 183.671875 325.910156 185.726562 325.957031 187.785156 325.957031 C 189.839844 325.957031 191.894531 325.910156 193.949219 325.820312 C 196.007812 325.730469 198.058594 325.589844 200.105469 325.410156 C 202.15625 325.226562 204.199219 324.996094 206.238281 324.722656 C 208.277344 324.449219 210.308594 324.128906 212.332031 323.765625 C 214.355469 323.398438 216.371094 322.992188 218.375 322.535156 C 220.382812 322.082031 222.378906 321.582031 224.359375 321.039062 C 226.34375 320.496094 228.316406 319.910156 230.273438 319.277344 C 232.230469 318.648438 234.171875 317.972656 236.101562 317.257812 C 238.027344 316.539062 239.941406 315.777344 241.832031 314.976562 C 243.726562 314.171875 245.601562 313.328125 247.457031 312.441406 C 249.3125 311.554688 251.148438 310.628906 252.964844 309.660156 C 254.78125 308.695312 256.570312 307.683594 258.339844 306.636719 C 260.113281 305.589844 261.855469 304.503906 263.578125 303.378906 C 265.300781 302.253906 266.996094 301.089844 268.664062 299.886719 C 270.335938 298.6875 271.976562 297.449219 273.589844 296.175781 C 275.207031 294.898438 276.792969 293.589844 278.347656 292.246094 C 279.902344 290.902344 281.429688 289.523438 282.925781 288.109375 C 284.417969 286.695312 285.882812 285.25 287.3125 283.773438 C 288.742188 282.292969 290.140625 280.785156 291.503906 279.246094 C 292.863281 277.703125 294.191406 276.136719 295.488281 274.535156 C 296.78125 272.9375 298.035156 271.308594 299.257812 269.652344 C 300.476562 267.996094 301.660156 266.316406 302.808594 264.609375 C 303.953125 262.898438 305.058594 261.167969 306.128906 259.410156 C 307.195312 257.652344 308.226562 255.871094 309.214844 254.066406 C 310.203125 252.265625 311.152344 250.441406 312.0625 248.59375 C 312.96875 246.75 313.835938 244.882812 314.660156 243 C 315.484375 241.117188 316.265625 239.214844 317.007812 237.296875 C 317.746094 235.375 318.445312 233.441406 319.097656 231.492188 C 319.753906 229.542969 320.363281 227.578125 320.929688 225.601562 C 321.496094 223.625 322.019531 221.632812 322.496094 219.632812 C 322.972656 217.632812 323.40625 215.625 323.796875 213.601562 C 324.183594 211.582031 324.527344 209.554688 324.824219 207.519531 C 324.855469 207.296875 324.960938 207.117188 325.140625 206.984375 C 325.320312 206.847656 325.523438 206.796875 325.746094 206.828125 C 325.96875 206.859375 326.144531 206.964844 326.28125 207.144531 C 326.417969 207.324219 326.46875 207.527344 326.433594 207.75 C 326.132812 209.808594 325.785156 211.859375 325.394531 213.902344 C 325 215.949219 324.5625 217.980469 324.078125 220.003906 C 323.59375 222.027344 323.066406 224.042969 322.492188 226.042969 C 321.921875 228.042969 321.304688 230.027344 320.640625 232.003906 C 319.980469 233.976562 319.273438 235.933594 318.527344 237.875 C 317.777344 239.816406 316.984375 241.738281 316.152344 243.644531 C 315.316406 245.550781 314.4375 247.4375 313.519531 249.304688 C 312.601562 251.171875 311.640625 253.019531 310.640625 254.84375 C 309.640625 256.667969 308.601562 258.46875 307.519531 260.246094 C 306.4375 262.023438 305.316406 263.777344 304.15625 265.507812 C 303 267.234375 301.800781 268.9375 300.566406 270.609375 C 299.332031 272.285156 298.058594 273.933594 296.75 275.550781 C 295.441406 277.167969 294.097656 278.757812 292.71875 280.316406 C 291.339844 281.875 289.929688 283.398438 288.480469 284.894531 C 287.035156 286.390625 285.554688 287.851562 284.042969 289.28125 C 282.53125 290.710938 280.984375 292.105469 279.410156 293.46875 C 277.835938 294.828125 276.234375 296.152344 274.601562 297.441406 C 272.964844 298.730469 271.304688 299.984375 269.617188 301.199219 C 267.925781 302.414062 266.210938 303.589844 264.46875 304.730469 C 262.726562 305.867188 260.960938 306.96875 259.171875 308.027344 C 257.378906 309.089844 255.566406 310.109375 253.730469 311.085938 C 251.894531 312.066406 250.035156 313.003906 248.160156 313.902344 C 246.28125 314.796875 244.382812 315.652344 242.46875 316.464844 C 240.550781 317.277344 238.617188 318.046875 236.667969 318.773438 C 234.71875 319.496094 232.753906 320.179688 230.773438 320.816406 C 228.792969 321.457031 226.796875 322.050781 224.789062 322.601562 C 222.785156 323.148438 220.765625 323.652344 218.734375 324.113281 C 216.707031 324.574219 214.667969 324.988281 212.621094 325.355469 C 210.570312 325.726562 208.515625 326.046875 206.453125 326.324219 C 204.390625 326.601562 202.324219 326.832031 200.25 327.019531 C 198.179688 327.203125 196.101562 327.34375 194.023438 327.4375 C 191.945312 327.527344 189.863281 327.574219 187.785156 327.574219 Z M 187.785156 327.574219 " fill-opacity="1" fill-rule="nonzero"/><g clip-path="url(#5a8726fbbb)"><g clip-path="url(#0e81d41c0b)"><path fill="#56091f" d="M 326.171875 178.347656 L 343.230469 178.347656 L 343.230469 196.667969 L 326.171875 196.667969 Z M 326.171875 178.347656 " fill-opacity="1" fill-rule="nonzero"/></g></g><g clip-path="url(#dd6bec922d)"><g clip-path="url(#4fd97746f6)"><path fill="#56091f" d="M 31.769531 178.347656 L 50.078125 178.347656 L 50.078125 196.652344 L 31.769531 196.652344 Z M 31.769531 178.347656 " fill-opacity="1" fill-rule="nonzero"/></g></g></svg>